<?xml version="1.0" encoding="UTF-8" standalone="no"?>
<!DOCTYPE svg PUBLIC "-//W3C//DTD SVG 1.1//EN" "http://www.w3.org/Graphics/SVG/1.1/DTD/svg11.dtd">
<svg width="100%" height="100%" viewBox="0 0 700 700" version="1.1" xmlns="http://www.w3.org/2000/svg" xmlns:xlink="http://www.w3.org/1999/xlink" xml:space="preserve" xmlns:serif="http://www.serif.com/" style="fill-rule:evenodd;clip-rule:evenodd;stroke-linejoin:round;stroke-miterlimit:2;">
    <g transform="matrix(1.21428,0,0,1.21428,-74.9991,10.0007)">
        <path d="M96.25,175L218.75,175C225.711,174.992 232.383,172.223 237.305,167.305C242.223,162.383 244.993,155.711 245,148.75L245,26.25C244.992,19.289 242.223,12.617 237.305,7.695C232.383,2.777 225.711,0.007 218.75,-0.001L96.25,-0.001C89.289,0.007 82.617,2.777 77.695,7.695C72.777,12.617 70.007,19.289 70,26.25L70,148.75C70.008,155.711 72.777,162.383 77.695,167.305C82.617,172.223 89.289,174.992 96.25,175ZM87.5,26.25C87.504,21.418 91.418,17.504 96.25,17.5L218.75,17.5C223.582,17.504 227.496,21.418 227.5,26.25L227.5,148.75C227.496,153.582 223.582,157.496 218.75,157.5L96.25,157.5C91.418,157.496 87.504,153.582 87.5,148.75L87.5,26.25Z" style="fill-rule:nonzero;"/>
        <path d="M288.75,175L411.25,175C418.211,174.992 424.883,172.223 429.805,167.305C434.723,162.383 437.493,155.711 437.5,148.75L437.5,26.25C437.492,19.289 434.723,12.617 429.805,7.695C424.883,2.777 418.211,0.007 411.25,-0.001L288.75,-0.001C281.789,0.007 275.117,2.777 270.195,7.695C265.277,12.617 262.508,19.289 262.5,26.25L262.5,148.75C262.508,155.711 265.277,162.383 270.195,167.305C275.117,172.223 281.789,174.992 288.75,175ZM280,26.25C280.004,21.418 283.918,17.504 288.75,17.5L411.25,17.5C416.082,17.504 419.996,21.418 420,26.25L420,148.75C419.996,153.582 416.082,157.496 411.25,157.5L288.75,157.5C283.918,157.496 280.004,153.582 280,148.75L280,26.25Z" style="fill-rule:nonzero;"/>
        <path d="M603.75,0L481.25,0C474.289,0.008 467.617,2.777 462.695,7.695C457.777,12.617 455.008,19.289 455,26.25L455,148.75C455.008,155.711 457.777,162.383 462.695,167.305C467.617,172.223 474.289,174.993 481.25,175.001L603.75,175.001C610.711,174.993 617.383,172.223 622.305,167.305C627.223,162.383 629.992,155.711 630,148.75L630,26.25C629.992,19.289 627.223,12.617 622.305,7.695C617.383,2.777 610.711,0.008 603.75,0ZM472.5,26.25C472.504,21.418 476.418,17.504 481.25,17.5L498.332,17.5L472.5,43.188L472.5,26.25ZM472.5,67.762C472.688,67.606 472.891,67.477 473.066,67.301L523.144,17.5L547.624,17.5L472.499,92.629L472.5,67.762ZM472.5,142.543L472.5,117.375L572.375,17.5L597.16,17.5L472.5,142.543ZM612.5,148.75C612.496,153.582 608.582,157.496 603.75,157.5L581.402,157.5L612.5,126.203L612.5,148.75ZM612.5,101.41C612.438,101.469 612.367,101.508 612.309,101.566L556.731,157.5L531.075,157.5L612.501,76.48L612.5,101.41ZM612.5,51.789L506.25,157.499L482.293,157.499L612.493,26.889L612.5,51.789Z" style="fill-rule:nonzero;"/>
        <path d="M96.25,367.5L218.75,367.5C225.711,367.492 232.383,364.723 237.305,359.805C242.223,354.883 244.993,348.211 245,341.25L245,218.75C244.992,211.789 242.223,205.117 237.305,200.195C232.383,195.277 225.711,192.507 218.75,192.499L96.25,192.499C89.289,192.507 82.617,195.277 77.695,200.195C72.777,205.117 70.007,211.789 70,218.75L70,341.25C70.008,348.211 72.777,354.883 77.695,359.805C82.617,364.723 89.289,367.492 96.25,367.5ZM87.5,218.75C87.504,213.918 91.418,210.004 96.25,210L218.75,210C223.582,210.004 227.496,213.918 227.5,218.75L227.5,341.25C227.496,346.082 223.582,349.996 218.75,350L96.25,350C91.418,349.996 87.504,346.082 87.5,341.25L87.5,218.75Z" style="fill-rule:nonzero;"/>
        <path d="M288.75,367.5L411.25,367.5C418.211,367.492 424.883,364.723 429.805,359.805C434.723,354.883 437.493,348.211 437.5,341.25L437.5,218.75C437.492,211.789 434.723,205.117 429.805,200.195C424.883,195.277 418.211,192.507 411.25,192.499L288.75,192.499C281.789,192.507 275.117,195.277 270.195,200.195C265.277,205.117 262.508,211.789 262.5,218.75L262.5,341.25C262.508,348.211 265.277,354.883 270.195,359.805C275.117,364.723 281.789,367.492 288.75,367.5ZM280,218.75C280.004,213.918 283.918,210.004 288.75,210L411.25,210C416.082,210.004 419.996,213.918 420,218.75L420,341.25C419.996,346.082 416.082,349.996 411.25,350L288.75,350C283.918,349.996 280.004,346.082 280,341.25L280,218.75Z" style="fill-rule:nonzero;"/>
        <path d="M603.75,192.5L481.25,192.5C474.289,192.508 467.617,195.277 462.695,200.195C457.777,205.117 455.008,211.789 455,218.75L455,341.25C455.008,348.211 457.777,354.883 462.695,359.805C467.617,364.723 474.289,367.493 481.25,367.501L603.75,367.501C610.711,367.493 617.383,364.723 622.305,359.805C627.223,354.883 629.992,348.211 630,341.25L630,218.75C629.992,211.789 627.223,205.117 622.305,200.195C617.383,195.277 610.711,192.508 603.75,192.5ZM612.5,341.25C612.496,346.082 608.582,349.996 603.75,350L481.25,350C476.418,349.996 472.504,346.082 472.5,341.25L472.5,218.75C472.504,213.918 476.418,210.004 481.25,210L603.75,210C608.582,210.004 612.496,213.918 612.5,218.75L612.5,341.25Z" style="fill-rule:nonzero;"/>
        <path d="M96.25,560L218.75,560C225.711,559.992 232.383,557.223 237.305,552.305C242.223,547.383 244.993,540.711 245,533.75L245,411.25C244.992,404.289 242.223,397.617 237.305,392.695C232.383,387.777 225.711,385.007 218.75,384.999L96.25,384.999C89.289,385.007 82.617,387.777 77.695,392.695C72.777,397.617 70.007,404.289 70,411.25L70,533.75C70.008,540.711 72.777,547.383 77.695,552.305C82.617,557.223 89.289,559.992 96.25,560ZM87.5,411.25C87.504,406.418 91.418,402.504 96.25,402.5L218.75,402.5C223.582,402.504 227.496,406.418 227.5,411.25L227.5,533.75C227.496,538.582 223.582,542.496 218.75,542.5L96.25,542.5C91.418,542.496 87.504,538.582 87.5,533.75L87.5,411.25Z" style="fill-rule:nonzero;"/>
        <path d="M288.75,560L411.25,560C418.211,559.992 424.883,557.223 429.805,552.305C434.723,547.383 437.493,540.711 437.5,533.75L437.5,411.25C437.492,404.289 434.723,397.617 429.805,392.695C424.883,387.777 418.211,385.007 411.25,384.999L288.75,384.999C281.789,385.007 275.117,387.777 270.195,392.695C265.277,397.617 262.508,404.289 262.5,411.25L262.5,533.75C262.508,540.711 265.277,547.383 270.195,552.305C275.117,557.223 281.789,559.992 288.75,560ZM280,411.25C280.004,406.418 283.918,402.504 288.75,402.5L411.25,402.5C416.082,402.504 419.996,406.418 420,411.25L420,533.75C419.996,538.582 416.082,542.496 411.25,542.5L288.75,542.5C283.918,542.496 280.004,538.582 280,533.75L280,411.25Z" style="fill-rule:nonzero;"/>
        <path d="M603.75,385L481.25,385C474.289,385.008 467.617,387.777 462.695,392.695C457.777,397.617 455.008,404.289 455,411.25L455,533.75C455.008,540.711 457.777,547.383 462.695,552.305C467.617,557.223 474.289,559.993 481.25,560.001L603.75,560.001C610.711,559.993 617.383,557.223 622.305,552.305C627.223,547.383 629.992,540.711 630,533.75L630,411.25C629.992,404.289 627.223,397.617 622.305,392.695C617.383,387.777 610.711,385.008 603.75,385ZM612.5,533.75C612.496,538.582 608.582,542.496 603.75,542.5L481.25,542.5C476.418,542.496 472.504,538.582 472.5,533.75L472.5,411.25C472.504,406.418 476.418,402.504 481.25,402.5L603.75,402.5C608.582,402.504 612.496,406.418 612.5,411.25L612.5,533.75Z" style="fill-rule:nonzero;"/>
    </g>
</svg>
