<?xml version="1.0" standalone="no"?>
<!DOCTYPE svg PUBLIC "-//W3C//DTD SVG 20010904//EN"
 "http://www.w3.org/TR/2001/REC-SVG-20010904/DTD/svg10.dtd">
<svg version="1.0" xmlns="http://www.w3.org/2000/svg"
 width="700.000000pt" height="700.000000pt" viewBox="0 0 700.000000 700.000000"
 preserveAspectRatio="xMidYMid meet">
<metadata>
Created by potrace 1.14, written by Peter Selinger 2001-2017
</metadata>
<g transform="translate(0.000000,700.000000) scale(0.100000,-0.100000)"
fill="#000000" stroke="none">
<path d="M335 6889 c-86 -25 -165 -92 -206 -176 l-24 -48 0 -825 c0 -824 0
-825 22 -872 43 -93 133 -166 228 -186 22 -4 393 -7 825 -7 l785 2 58 22 c73
29 140 94 175 170 l25 56 1 805 c0 777 0 807 -19 859 -25 68 -87 138 -157 176
l-53 30 -815 2 c-452 1 -828 -3 -845 -8z m1617 -215 c61 -32 58 12 59 -830 1
-610 -2 -775 -12 -797 -27 -60 2 -58 -842 -57 -736 0 -773 1 -797 18 -14 11
-30 29 -37 42 -8 17 -11 224 -10 794 2 846 -1 804 62 831 47 21 1538 19 1577
-1z"/>
<path d="M2653 6881 c-95 -32 -166 -105 -199 -204 -16 -48 -17 -121 -17 -842
1 -721 2 -794 18 -840 35 -103 119 -181 222 -207 40 -11 222 -13 839 -12 696
1 794 3 831 17 114 43 195 140 210 252 3 22 6 384 6 805 0 677 -2 771 -16 821
-20 67 -63 129 -119 169 -85 62 -65 60 -933 60 -729 -1 -794 -2 -842 -19z
m1639 -207 c60 -31 58 -1 58 -845 l0 -771 -34 -34 c-29 -29 -41 -34 -82 -35
-27 0 -377 0 -777 0 -669 1 -731 2 -757 18 -16 9 -34 30 -40 47 -14 41 -14
1551 1 1578 6 10 24 27 41 38 29 17 67 18 797 18 641 0 770 -2 793 -14z"/>
<path d="M4980 6878 c-77 -30 -161 -115 -185 -188 -18 -52 -19 -102 -20 -835
-1 -800 1 -840 38 -912 28 -53 94 -112 155 -141 l57 -26 800 -1 c760 -1 803 0
857 18 75 24 148 90 185 165 l28 57 0 825 0 825 -25 50 c-13 28 -43 68 -65 90
-22 22 -62 52 -90 65 l-50 25 -815 2 c-809 2 -815 2 -870 -19z m168 -344
l-153 -152 -5 31 c-3 18 -3 74 0 125 5 89 6 95 36 121 30 27 34 28 153 28
l123 0 -154 -153z m742 148 c0 -8 -894 -901 -898 -897 -6 6 -3 287 3 294 3 3
141 142 308 309 l302 302 143 -1 c78 -1 142 -4 142 -7z m598 -2 c-2 -5 -339
-346 -750 -758 l-748 -748 -1 75 c0 42 0 110 1 151 l1 75 605 606 606 606 145
1 c89 1 143 -2 141 -8z m200 -259 l0 -149 -643 -640 -642 -641 -104 -3 c-57
-2 -123 -2 -147 0 l-44 3 788 790 c434 434 789 789 790 789 1 0 2 -67 2 -149z
m0 -601 l0 -149 -338 -341 -337 -341 -114 0 c-63 0 -132 0 -155 0 l-41 1 491
490 c270 269 492 490 492 490 1 0 2 -67 2 -150z m0 -602 c-1 -221 -9 -229
-218 -229 -78 0 -144 1 -146 4 -4 4 353 367 361 367 2 0 4 -64 3 -142z"/>
<path d="M394 4562 c-134 -19 -231 -94 -274 -210 -20 -51 -20 -76 -18 -865 l3
-812 28 -57 c35 -71 101 -130 176 -159 56 -21 61 -21 853 -22 742 0 800 1 845
18 97 36 164 102 200 197 14 38 16 130 17 828 1 432 -2 802 -6 824 -26 120
-115 216 -228 247 -33 8 -248 12 -811 13 -421 0 -774 0 -785 -2z m1558 -224
c33 -19 45 -32 52 -56 4 -12 7 -366 7 -786 0 -844 3 -812 -62 -835 -22 -8
-261 -11 -791 -11 -831 0 -801 -2 -832 58 -22 42 -21 1543 0 1584 31 59 -1 57
837 58 596 0 772 -3 789 -12z"/>
<path d="M2740 4562 c-50 -5 -116 -26 -150 -48 -70 -43 -131 -131 -146 -209
-9 -52 -9 -1558 0 -1609 23 -121 131 -229 251 -252 22 -4 394 -7 826 -7 l786
0 59 27 c99 46 171 133 190 232 9 51 9 1557 0 1608 -23 121 -131 229 -251 252
-36 6 -1507 13 -1565 6z m1577 -245 l28 -27 0 -790 0 -790 -28 -27 -27 -28
-790 0 -790 0 -27 28 -28 27 0 789 c0 775 0 789 20 811 11 12 29 26 40 31 11
4 370 7 797 6 l778 -2 27 -28z"/>
<path d="M5075 4562 c-130 -14 -231 -88 -276 -202 -22 -55 -22 -58 -24 -840
-1 -557 2 -800 10 -836 25 -109 100 -191 210 -229 46 -16 116 -17 845 -17 790
0 795 0 851 21 75 29 141 88 176 159 l28 57 3 804 c3 890 4 867 -61 953 -39
52 -113 103 -170 119 -30 8 -266 12 -802 13 -418 0 -773 0 -790 -2z m1555
-227 c60 -31 58 -2 58 -820 0 -457 -3 -765 -9 -788 -7 -26 -20 -44 -42 -57
-31 -19 -56 -20 -801 -20 l-770 0 -32 22 c-18 13 -36 34 -39 47 -4 14 -6 368
-6 787 0 558 3 768 12 787 26 58 5 57 837 57 663 0 767 -2 792 -15z"/>
<path d="M347 2215 c-100 -26 -178 -91 -220 -183 -22 -47 -22 -48 -22 -872 l0
-825 25 -50 c31 -64 91 -124 155 -155 l50 -25 815 -2 815 -3 60 25 c83 33 156
112 181 194 18 56 19 106 18 848 0 577 -4 799 -12 830 -27 94 -121 188 -215
215 -57 16 -1589 19 -1650 3z m1611 -216 c54 -30 53 -7 52 -841 0 -674 -2
-774 -15 -794 -35 -53 -13 -52 -810 -52 -407 -1 -757 1 -777 4 -39 6 -68 26
-85 59 -8 14 -11 268 -9 797 l1 778 28 27 c22 23 39 29 90 33 34 3 386 4 781
3 563 -1 725 -4 744 -14z"/>
<path d="M2666 2209 c-105 -32 -193 -121 -216 -221 -10 -41 -13 -234 -13 -823
0 -424 3 -788 7 -810 16 -96 109 -202 208 -236 50 -17 102 -18 863 -16 l810 2
59 30 c72 36 128 99 157 174 21 56 21 62 21 851 0 727 -1 799 -17 845 -16 47
-49 99 -86 136 -26 26 -100 66 -139 75 -19 4 -388 8 -819 9 -693 0 -789 -1
-835 -16z m1651 -233 l33 -36 0 -770 c0 -843 2 -813 -58 -844 -22 -11 -157
-14 -794 -14 -732 1 -768 1 -798 19 -17 11 -35 31 -40 45 -6 16 -10 317 -10
790 0 815 0 808 47 830 38 16 161 19 863 17 l725 -2 32 -35z"/>
<path d="M5018 2214 c-110 -28 -200 -113 -230 -218 -14 -49 -19 -1590 -6
-1646 24 -96 86 -173 177 -218 l56 -27 825 0 825 0 50 25 c64 31 127 95 157
157 l23 48 0 825 0 825 -28 57 c-35 72 -111 141 -180 164 -48 17 -113 18 -839
19 -538 0 -801 -3 -830 -11z m1617 -218 c54 -36 53 -11 52 -836 0 -498 -3
-773 -10 -787 -5 -13 -22 -31 -36 -40 -24 -17 -78 -18 -796 -19 -831 -2 -805
-3 -841 51 -14 21 -16 108 -16 793 0 834 -2 811 54 840 33 17 51 17 846 15
642 -1 726 -3 747 -17z"/>
</g>
</svg>
